<svg id="Layer_1" data-name="Layer 1" xmlns="http://www.w3.org/2000/svg" viewBox="0 0 460.78 266.06"><defs><style>.cls-1{fill:#f7f7f7;}.cls-2{fill:#4ca7e5;}.cls-3{fill:#3288d0;}.cls-4{fill:#d2d6d8;}.cls-5{fill:#fff;}</style></defs><rect class="cls-1" x="167.06" y="11.16" width="135" height="96.51" rx="12"/><rect class="cls-2" x="191.61" width="10.6" height="26.78" rx="3.81"/><rect class="cls-2" x="216.9" width="10.6" height="26.78" rx="3.81"/><rect class="cls-2" x="242.19" width="10.6" height="26.78" rx="3.81"/><rect class="cls-2" x="267.48" width="10.6" height="26.78" rx="3.81"/><rect class="cls-3" x="179.65" y="45.77" width="109.89" height="49.65" rx="9.95"/><path class="cls-4" d="M57.57,291.41V279.73a.33.33,0,0,0,0-.19l-6-14.57,0-.15c0-.21.13-.32.39-.32h2.31a.49.49,0,0,1,.51.32l4.2,11.44a.14.14,0,0,0,.13.08.13.13,0,0,0,.12-.08l4.2-11.44a.5.5,0,0,1,.51-.32h2.31a.41.41,0,0,1,.33.14.32.32,0,0,1,0,.33l-5.91,14.57s0,.09,0,.19v11.68c0,.26-.15.39-.43.39H58C57.71,291.8,57.57,291.67,57.57,291.41Z" transform="translate(-19.22 -26.1)"/><path class="cls-4" d="M72.06,290.28a6.43,6.43,0,0,1-2-5V271a6.41,6.41,0,0,1,2-5,7.54,7.54,0,0,1,5.33-1.88,7.69,7.69,0,0,1,5.39,1.88,6.38,6.38,0,0,1,2,5v14.29a6.4,6.4,0,0,1-2,4.94,7.65,7.65,0,0,1-5.39,1.89A7.54,7.54,0,0,1,72.06,290.28Zm8.51-1.74a4.08,4.08,0,0,0,1.22-3.07V270.91a4.14,4.14,0,0,0-1.22-3.11,4.36,4.36,0,0,0-3.18-1.19,4.26,4.26,0,0,0-3.13,1.19,4.2,4.2,0,0,0-1.2,3.11v14.56a4.14,4.14,0,0,0,1.2,3.07,4.26,4.26,0,0,0,3.13,1.19A4.36,4.36,0,0,0,80.57,288.54Z" transform="translate(-19.22 -26.1)"/><path class="cls-4" d="M92,290.08a7.5,7.5,0,0,1-2-5.46V264.9c0-.27.14-.4.43-.4h2.18c.29,0,.43.13.43.4v20a5,5,0,0,0,1.18,3.47,3.93,3.93,0,0,0,3.1,1.33,4.06,4.06,0,0,0,3.17-1.33,5,5,0,0,0,1.2-3.47v-20c0-.27.14-.4.42-.4h2.19c.28,0,.42.13.42.4v19.72a7.44,7.44,0,0,1-2,5.46,7.17,7.17,0,0,1-5.37,2.07A7.06,7.06,0,0,1,92,290.08Z" transform="translate(-19.22 -26.1)"/><path class="cls-4" d="M122.11,291.53l-4.36-12.07a.17.17,0,0,0-.18-.12h-3.72a.15.15,0,0,0-.17.16v11.95c0,.26-.14.39-.43.39h-2.18c-.29,0-.43-.13-.43-.39V264.9c0-.27.14-.4.43-.4h7.06a6.55,6.55,0,0,1,5.05,2.09,7.71,7.71,0,0,1,1.93,5.45,7.8,7.8,0,0,1-1.2,4.37,6.32,6.32,0,0,1-3.25,2.58c-.12,0-.16.09-.13.2l4.66,12.22,0,.16q0,.27-.39.27h-2.23A.5.5,0,0,1,122.11,291.53Zm-8.43-24.45V277c0,.11.06.16.17.16h3.85a4,4,0,0,0,3.17-1.39,5.43,5.43,0,0,0,1.2-3.69,5.52,5.52,0,0,0-1.2-3.71,4,4,0,0,0-3.17-1.4h-3.85C113.74,266.93,113.68,267,113.68,267.08Z" transform="translate(-19.22 -26.1)"/><path class="cls-4" d="M150.66,266.55a7.82,7.82,0,0,1,1.92,5.49,7.67,7.67,0,0,1-1.88,5.41,6.4,6.4,0,0,1-5,2.05h-4.41c-.12,0-.17.05-.17.16v11.79c0,.26-.15.39-.43.39h-2.18c-.29,0-.43-.13-.43-.39V264.86c0-.26.14-.39.43-.39h7.06A6.55,6.55,0,0,1,150.66,266.55Zm-2.31,9.28a5.59,5.59,0,0,0,1.2-3.75,5.66,5.66,0,0,0-1.2-3.77,3.89,3.89,0,0,0-3.13-1.42h-3.89c-.12,0-.17.05-.17.15v10c0,.1.05.15.17.15h3.89A3.9,3.9,0,0,0,148.35,275.83Z" transform="translate(-19.22 -26.1)"/><path class="cls-4" d="M168.55,291.53l-4.37-12.07a.16.16,0,0,0-.17-.12h-3.72c-.12,0-.17.06-.17.16v11.95c0,.26-.15.39-.43.39h-2.18c-.29,0-.43-.13-.43-.39V264.9c0-.27.14-.4.43-.4h7.06a6.57,6.57,0,0,1,5.05,2.09,8.66,8.66,0,0,1,.73,9.82,6.34,6.34,0,0,1-3.26,2.58c-.11,0-.15.09-.12.2l4.66,12.22,0,.16c0,.18-.13.27-.38.27h-2.23A.49.49,0,0,1,168.55,291.53Zm-8.43-24.45V277c0,.11,0,.16.17.16h3.85a4,4,0,0,0,3.17-1.39,5.43,5.43,0,0,0,1.2-3.69,5.52,5.52,0,0,0-1.2-3.71,4,4,0,0,0-3.17-1.4h-3.85C160.17,266.93,160.12,267,160.12,267.08Z" transform="translate(-19.22 -26.1)"/><path class="cls-4" d="M177.34,290.28a6.45,6.45,0,0,1-2-5V271a6.44,6.44,0,0,1,2-5,7.58,7.58,0,0,1,5.33-1.88,7.7,7.7,0,0,1,5.4,1.88,6.38,6.38,0,0,1,2.05,5v14.29a6.4,6.4,0,0,1-2.05,4.94,7.66,7.66,0,0,1-5.4,1.89A7.57,7.57,0,0,1,177.34,290.28Zm8.52-1.74a4.11,4.11,0,0,0,1.22-3.07V270.91a4.17,4.17,0,0,0-1.22-3.11,4.39,4.39,0,0,0-3.19-1.19,4.25,4.25,0,0,0-3.12,1.19,4.2,4.2,0,0,0-1.2,3.11v14.56a4.14,4.14,0,0,0,1.2,3.07,4.25,4.25,0,0,0,3.12,1.19A4.39,4.39,0,0,0,185.86,288.54Z" transform="translate(-19.22 -26.1)"/><path class="cls-4" d="M195.38,290.34a6.23,6.23,0,0,1-2-4.79v-3.28q0-.39.42-.39H196q.42,0,.42.39v3.32a4.09,4.09,0,0,0,1.12,3,4.33,4.33,0,0,0,5.88,0,4.06,4.06,0,0,0,1.14-3V264.9c0-.27.14-.4.42-.4h2.19c.28,0,.42.13.42.4v20.65a6.23,6.23,0,0,1-2,4.79,8.2,8.2,0,0,1-10.28,0Z" transform="translate(-19.22 -26.1)"/><path class="cls-4" d="M226.33,266.93H216.4c-.12,0-.17.05-.17.15v9.69c0,.1.05.15.17.15h6.25c.28,0,.43.13.43.39V279c0,.26-.15.39-.43.39H216.4c-.12,0-.17.05-.17.16v9.72c0,.11.05.16.17.16h9.93c.28,0,.43.13.43.39v1.64c0,.26-.15.39-.43.39H213.62c-.29,0-.43-.13-.43-.39V264.9c0-.27.14-.4.43-.4h12.71c.28,0,.43.13.43.4v1.64C226.76,266.8,226.61,266.93,226.33,266.93Z" transform="translate(-19.22 -26.1)"/><path class="cls-4" d="M232.81,290.32a6.41,6.41,0,0,1-2-4.92V270.91a6.34,6.34,0,0,1,2-4.88,7.47,7.47,0,0,1,5.29-1.84,7.62,7.62,0,0,1,5.33,1.82,6.32,6.32,0,0,1,2,4.9v.66c0,.26-.15.39-.43.39l-2.23.12q-.42,0-.42-.39v-1a4,4,0,0,0-1.16-3,4.7,4.7,0,0,0-6.14,0,3.89,3.89,0,0,0-1.18,3v14.92a3.93,3.93,0,0,0,1.18,3,4.74,4.74,0,0,0,6.14,0,4,4,0,0,0,1.16-3v-1q0-.39.42-.39l2.23.12c.28,0,.43.13.43.39v.63a6.36,6.36,0,0,1-2,4.92,7.6,7.6,0,0,1-5.31,1.83A7.51,7.51,0,0,1,232.81,290.32Z" transform="translate(-19.22 -26.1)"/><path class="cls-4" d="M264.21,264.9v1.64c0,.26-.15.39-.43.39h-5.65c-.12,0-.17.05-.17.15v24.37c0,.26-.14.39-.43.39h-2.18c-.29,0-.43-.13-.43-.39V267.08c0-.1-.06-.15-.17-.15h-5.31c-.28,0-.43-.13-.43-.39V264.9c0-.27.15-.4.43-.4h14.34C264.06,264.5,264.21,264.63,264.21,264.9Z" transform="translate(-19.22 -26.1)"/><path class="cls-4" d="M269.43,290.24a6.67,6.67,0,0,1-2-5v-.9c0-.26.14-.39.43-.39H270c.29,0,.43.13.43.39v.78a4.76,4.76,0,0,0,1.16,3.34,3.85,3.85,0,0,0,3,1.27,4,4,0,0,0,3-1.21,4.84,4.84,0,0,0,.62-5.49,6.43,6.43,0,0,0-1.5-1.68c-.61-.48-1.63-1.21-3.06-2.2s-2.55-1.79-3.38-2.48a8.57,8.57,0,0,1-2-2.48,6.94,6.94,0,0,1-.79-3.4,6.24,6.24,0,0,1,1.92-4.82,8,8,0,0,1,10.21.15,6.93,6.93,0,0,1,1.95,5.14v1c0,.26-.15.39-.43.39h-2.14c-.29,0-.43-.13-.43-.39v-1a4.86,4.86,0,0,0-1.13-3.34,3.89,3.89,0,0,0-3-1.27,3.83,3.83,0,0,0-2.83,1.12,4.25,4.25,0,0,0-1.11,3.14,4.52,4.52,0,0,0,.49,2.13,6,6,0,0,0,1.48,1.74c.66.54,1.63,1.26,2.91,2.14a46.71,46.71,0,0,1,3.83,2.79,8.34,8.34,0,0,1,1.95,2.35,6.32,6.32,0,0,1,.68,3.06,6.8,6.8,0,0,1-2,5.14,7.16,7.16,0,0,1-5.18,1.93A7.06,7.06,0,0,1,269.43,290.24Z" transform="translate(-19.22 -26.1)"/><path class="cls-4" d="M285.5,291.14a2.08,2.08,0,0,1-.66-1.57,2.05,2.05,0,0,1,.66-1.58,2.48,2.48,0,0,1,1.73-.6,2.52,2.52,0,0,1,1.72.6,2,2,0,0,1,.68,1.58,2.06,2.06,0,0,1-.68,1.57,2.49,2.49,0,0,1-1.72.62A2.44,2.44,0,0,1,285.5,291.14Z" transform="translate(-19.22 -26.1)"/><path class="cls-4" d="M304.25,290.28a6.43,6.43,0,0,1-2-5V271a6.41,6.41,0,0,1,2-5,7.53,7.53,0,0,1,5.32-1.88,7.7,7.7,0,0,1,5.4,1.88,6.38,6.38,0,0,1,2,5v14.29a6.4,6.4,0,0,1-2,4.94,7.66,7.66,0,0,1-5.4,1.89A7.53,7.53,0,0,1,304.25,290.28Zm8.51-1.74a4.08,4.08,0,0,0,1.22-3.07V270.91a4.14,4.14,0,0,0-1.22-3.11,4.37,4.37,0,0,0-3.19-1.19,4.25,4.25,0,0,0-3.12,1.19,4.2,4.2,0,0,0-1.2,3.11v14.56a4.14,4.14,0,0,0,1.2,3.07,4.25,4.25,0,0,0,3.12,1.19A4.37,4.37,0,0,0,312.76,288.54Z" transform="translate(-19.22 -26.1)"/><path class="cls-4" d="M324.21,290.08a7.5,7.5,0,0,1-2-5.46V264.9c0-.27.14-.4.43-.4h2.18c.29,0,.43.13.43.4v20a5,5,0,0,0,1.18,3.47,3.91,3.91,0,0,0,3.1,1.33,4.06,4.06,0,0,0,3.17-1.33,5,5,0,0,0,1.19-3.47v-20c0-.27.15-.4.43-.4h2.19c.28,0,.42.13.42.4v19.72a7.44,7.44,0,0,1-2,5.46,7.2,7.2,0,0,1-5.37,2.07A7.06,7.06,0,0,1,324.21,290.08Z" transform="translate(-19.22 -26.1)"/><path class="cls-4" d="M354.3,291.53l-4.37-12.07a.16.16,0,0,0-.17-.12H346a.15.15,0,0,0-.17.16v11.95c0,.26-.14.39-.43.39h-2.18c-.29,0-.43-.13-.43-.39V264.9c0-.27.14-.4.43-.4h7.06a6.55,6.55,0,0,1,5.05,2.09,8.62,8.62,0,0,1,.73,9.82,6.34,6.34,0,0,1-3.26,2.58c-.11,0-.15.09-.12.2l4.66,12.22,0,.16c0,.18-.12.27-.38.27h-2.23A.5.5,0,0,1,354.3,291.53Zm-8.43-24.45V277c0,.11.06.16.17.16h3.85a4,4,0,0,0,3.17-1.39,5.43,5.43,0,0,0,1.2-3.69,5.52,5.52,0,0,0-1.2-3.71,4,4,0,0,0-3.17-1.4H346C345.93,266.93,345.87,267,345.87,267.08Z" transform="translate(-19.22 -26.1)"/><path class="cls-4" d="M383.92,264.9v1.64c0,.26-.15.39-.43.39h-5.65c-.12,0-.17.05-.17.15v24.37c0,.26-.14.39-.43.39h-2.18c-.29,0-.43-.13-.43-.39V267.08c0-.1-.06-.15-.17-.15h-5.31c-.28,0-.43-.13-.43-.39V264.9c0-.27.15-.4.43-.4h14.34C383.77,264.5,383.92,264.63,383.92,264.9Z" transform="translate(-19.22 -26.1)"/><path class="cls-4" d="M388.43,290.28a6.45,6.45,0,0,1-2-5V271a6.44,6.44,0,0,1,2-5,7.56,7.56,0,0,1,5.33-1.88,7.66,7.66,0,0,1,5.39,1.88,6.39,6.39,0,0,1,2.06,5v14.29a6.41,6.41,0,0,1-2.06,4.94,8.58,8.58,0,0,1-10.72,0Zm8.52-1.74a4.11,4.11,0,0,0,1.22-3.07V270.91A4.17,4.17,0,0,0,397,267.8a4.39,4.39,0,0,0-3.19-1.19,4.25,4.25,0,0,0-3.12,1.19,4.2,4.2,0,0,0-1.2,3.11v14.56a4.14,4.14,0,0,0,1.2,3.07,4.25,4.25,0,0,0,3.12,1.19A4.39,4.39,0,0,0,397,288.54Z" transform="translate(-19.22 -26.1)"/><path class="cls-4" d="M408,290.28a6.42,6.42,0,0,1-2-5V271a6.4,6.4,0,0,1,2-5,7.54,7.54,0,0,1,5.33-1.88,7.69,7.69,0,0,1,5.39,1.88,6.39,6.39,0,0,1,2.06,5v14.29a6.41,6.41,0,0,1-2.06,4.94,7.65,7.65,0,0,1-5.39,1.89A7.54,7.54,0,0,1,408,290.28Zm8.52-1.74a4.11,4.11,0,0,0,1.22-3.07V270.91a4.17,4.17,0,0,0-1.22-3.11,4.4,4.4,0,0,0-3.19-1.19,4.26,4.26,0,0,0-3.13,1.19,4.19,4.19,0,0,0-1.19,3.11v14.56a4.13,4.13,0,0,0,1.19,3.07,4.26,4.26,0,0,0,3.13,1.19A4.4,4.4,0,0,0,416.47,288.54Z" transform="translate(-19.22 -26.1)"/><path class="cls-4" d="M426.16,291.45V264.9c0-.27.14-.4.43-.4h2.18c.29,0,.43.13.43.4v24.36c0,.11.06.16.17.16h9.8c.29,0,.43.13.43.39v1.64c0,.26-.14.39-.43.39H426.59C426.3,291.84,426.16,291.71,426.16,291.45Z" transform="translate(-19.22 -26.1)"/><path class="cls-4" d="M443.54,290.24a6.67,6.67,0,0,1-2-5v-.9c0-.26.14-.39.43-.39h2.09c.29,0,.43.13.43.39v.78a4.76,4.76,0,0,0,1.16,3.34,3.85,3.85,0,0,0,3,1.27,4,4,0,0,0,3-1.21,4.84,4.84,0,0,0,.62-5.49,6.26,6.26,0,0,0-1.5-1.68c-.61-.48-1.63-1.21-3.06-2.2s-2.55-1.79-3.38-2.48a8.57,8.57,0,0,1-2-2.48,6.94,6.94,0,0,1-.79-3.4,6.24,6.24,0,0,1,1.92-4.82,8,8,0,0,1,10.21.15,6.93,6.93,0,0,1,1.95,5.14v1c0,.26-.15.39-.43.39H453c-.29,0-.43-.13-.43-.39v-1a4.86,4.86,0,0,0-1.13-3.34,3.89,3.89,0,0,0-3-1.27,3.83,3.83,0,0,0-2.83,1.12,4.25,4.25,0,0,0-1.11,3.14A4.52,4.52,0,0,0,445,273a6,6,0,0,0,1.48,1.74c.66.54,1.63,1.26,2.91,2.14a46.71,46.71,0,0,1,3.83,2.79,8.34,8.34,0,0,1,1.95,2.35,6.32,6.32,0,0,1,.68,3.06,6.8,6.8,0,0,1-2,5.14,7.15,7.15,0,0,1-5.18,1.93A7.06,7.06,0,0,1,443.54,290.24Z" transform="translate(-19.22 -26.1)"/><path class="cls-5" d="M69.2,159.92v17.6H55.62v70.34H32.75V177.52H19.22v-17.6Z" transform="translate(-19.22 -26.1)"/><path class="cls-5" d="M117.83,159.92l13.08,87.94H107.54l-1.23-15.81H98.13l-1.38,15.81H73.11l11.67-87.94Zm-12.12,56.54q-1.74-14.94-3.48-36.93-3.49,25.26-4.39,36.93Z" transform="translate(-19.22 -26.1)"/><path class="cls-5" d="M191.58,186.53H170.34V180c0-3.05-.27-5-.81-5.82a3,3,0,0,0-2.72-1.25,3.47,3.47,0,0,0-3.12,1.69,9.74,9.74,0,0,0-1.06,5.11,14.53,14.53,0,0,0,1.19,6.63q1.14,2.24,6.46,5.38,15.27,9.06,19.24,14.87t4,18.74q0,9.4-2.2,13.85t-8.5,7.47a33.61,33.61,0,0,1-14.66,3,32.86,32.86,0,0,1-15.67-3.47q-6.49-3.48-8.5-8.86t-2-15.26v-5.76h21.23v10.7q0,4.95.9,6.36a3.48,3.48,0,0,0,3.18,1.41,3.72,3.72,0,0,0,3.39-1.79,10.25,10.25,0,0,0,1.12-5.32q0-7.77-2.12-10.16t-10.7-8a104.68,104.68,0,0,1-11.3-8.2,19.05,19.05,0,0,1-4.59-7.06,31.09,31.09,0,0,1-1.82-11.51q0-10.11,2.58-14.78a17.34,17.34,0,0,1,8.34-7.3,33.18,33.18,0,0,1,13.9-2.64A36.19,36.19,0,0,1,181.23,161q6.28,2.88,8.31,7.25t2,14.86Z" transform="translate(-19.22 -26.1)"/><path class="cls-5" d="M263.5,159.92l-13.11,39.7,14.36,48.24H241.12l-9.26-37.7v37.7H209V159.92h22.86v34.16l10.19-34.16Z" transform="translate(-19.22 -26.1)"/><path class="cls-5" d="M299.9,159.92v70.34h13.91v17.6H277V159.92Z" transform="translate(-19.22 -26.1)"/><path class="cls-5" d="M350.56,159.92v87.94H327.69V159.92Z" transform="translate(-19.22 -26.1)"/><path class="cls-5" d="M416.53,186.53H395.29V180c0-3.05-.27-5-.81-5.82a3,3,0,0,0-2.72-1.25,3.45,3.45,0,0,0-3.12,1.69,9.74,9.74,0,0,0-1.06,5.11,14.53,14.53,0,0,0,1.19,6.63q1.14,2.24,6.46,5.38,15.27,9.06,19.24,14.87t4,18.74q0,9.4-2.2,13.85t-8.5,7.47a33.63,33.63,0,0,1-14.67,3,32.91,32.91,0,0,1-15.67-3.47q-6.48-3.48-8.5-8.86t-2-15.26v-5.76h21.24v10.7q0,4.95.9,6.36a3.47,3.47,0,0,0,3.18,1.41,3.72,3.72,0,0,0,3.39-1.79,10.26,10.26,0,0,0,1.11-5.32q0-7.77-2.11-10.16t-10.7-8a103.62,103.62,0,0,1-11.3-8.2A19.05,19.05,0,0,1,368,194.3a30.89,30.89,0,0,1-1.82-11.51q0-10.11,2.58-14.78a17.34,17.34,0,0,1,8.34-7.3,33.15,33.15,0,0,1,13.9-2.64A36.19,36.19,0,0,1,406.18,161q6.27,2.88,8.31,7.25t2,14.86Z" transform="translate(-19.22 -26.1)"/><path class="cls-5" d="M480,159.92v17.6H466.42v70.34H443.56V177.52H430v-17.6Z" transform="translate(-19.22 -26.1)"/></svg>